# xmcd
#
# Track frame offsets:
#	150
#	19836
#	35623
#	49185
#	67284
#	84958
#	102471
#	124806
#	144157
#	167141
#	181916
#
# Disc length: 2626 seconds
#
# Revision: 0
# Processed by: cddbd v1.5.2PL0 Copyright (c) Steve Scherf et al.
# Submitted via: audiograbber 1.83.01
#
DISCID=960a400b
DTITLE=TMStudios - HC200833
DYEAR=2008
DGENRE=Country
TTITLE0=Alex Woodard - Halfway
TTITLE1=Miranda Lambert - More Like Her
TTITLE2=Joey and Rory - Cheater Cheater [Radio Mix]
TTITLE3=Brooks and Dunn - Put A Girl In It [Friday 5 O'Clock Mix]
TTITLE4=Avant - When It Hurts
TTITLE5=Paul Jackson Jr. - Don't You Worry 'Bout A Thing
TTITLE6=Anders Holst - All About Soul [Album Version]
TTITLE7=Anders Holst - Make It Shine [Album Version]
TTITLE8=Leon Ware - Smoovin' [Album Version]
TTITLE9=Jeff Lorber - Rehab
TTITLE10=Phil Perry - Desire
EXTD=
EXTT0=
EXTT1=
EXTT2=
EXTT3=
EXTT4=
EXTT5=
EXTT6=
EXTT7=
EXTT8=
EXTT9=
EXTT10=
PLAYORDER=
